<svg id="Layer_1" data-name="Layer 1" xmlns="http://www.w3.org/2000/svg" viewBox="0 0 306.45 54.82"><defs><style>.cls-1{isolation:isolate;}.cls-2{fill:#191919;}.cls-3{fill:#5cc4bb;}</style></defs><g class="cls-1"><path class="cls-2" d="M91.27,53.53q7.65,7.13,7.66,20.29T91.27,94.11q-7.67,7.11-21.76,7.12H48.8V46.4H69.51Q83.61,46.4,91.27,53.53ZM64.2,88.29h4.85q6.7,0,10.24-3.73t3.55-10.74q0-7-3.55-10.74T69.05,59.34H64.2Z" transform="translate(-48.8 -46.4)"/></g><g class="cls-1"><path class="cls-3" d="M120.18,91.37l-2.77,9.86H101.16L119.57,46.4h19.79l18.4,54.83H141.51l-2.77-9.86Zm14.09-15.86q-2.39-8.39-4.69-18.48h-.16Q127,67.58,124.65,75.51l-1.08,3.77h11.78Z" transform="translate(-48.8 -46.4)"/></g><g class="cls-1"><path class="cls-2" d="M201.1,50.22a12.31,12.31,0,0,1,5,10.35,12.68,12.68,0,0,1-2.2,7.7A13.78,13.78,0,0,1,197,72.89v.16a13.46,13.46,0,0,1,7.82,4.42,12.86,12.86,0,0,1,2.65,8.36A13.39,13.39,0,0,1,202,97.07q-5.47,4.16-15.09,4.16h-24V46.4h23.26Q196.1,46.4,201.1,50.22Zm-23.33,17.9h5.93c2.57,0,4.45-.42,5.66-1.27a4.51,4.51,0,0,0,1.81-4A4.58,4.58,0,0,0,189.48,59c-1.13-.84-2.9-1.27-5.32-1.27h-6.39Zm0,21.71H184q4.08,0,5.85-1.27a4.73,4.73,0,0,0,1.77-4.12,4.79,4.79,0,0,0-1.88-4.23c-1.26-.88-3.28-1.31-6.05-1.31h-5.93Z" transform="translate(-48.8 -46.4)"/><path class="cls-2" d="M253.23,50.22a12.31,12.31,0,0,1,5,10.35,12.74,12.74,0,0,1-2.2,7.7,13.78,13.78,0,0,1-6.89,4.62v.16A13.49,13.49,0,0,1,257,77.47a12.86,12.86,0,0,1,2.65,8.36,13.39,13.39,0,0,1-5.46,11.24q-5.47,4.16-15.1,4.16H215V46.4h23.25Q248.24,46.4,253.23,50.22ZM229.9,68.12h5.93c2.57,0,4.45-.42,5.66-1.27a4.53,4.53,0,0,0,1.81-4A4.56,4.56,0,0,0,241.6,59a9,9,0,0,0-5.31-1.27H229.9Zm0,21.71h6.24q4.08,0,5.85-1.27a5.68,5.68,0,0,0-.12-8.35c-1.25-.88-3.27-1.31-6-1.31H229.9Z" transform="translate(-48.8 -46.4)"/><path class="cls-2" d="M282.57,59.11v8.24h22.56v12.4H282.57v8.77h24.71v12.71H267.17V46.4h39.65V59.11Z" transform="translate(-48.8 -46.4)"/><path class="cls-2" d="M355.25,88.29v12.94H316.06V46.4h15.4V88.29Z" transform="translate(-48.8 -46.4)"/></g></svg>